Coordinates
version=1
nRows=8
nColumns=34
inDegrees=yes

Units are S.I. units (second, meters, Newtons, ...)
If the header above contains a line with 'inDegrees', this indicates whether rotational values are in degrees (yes) or radians (no).

endheader
time	pelvis_tilt	pelvis_list	pelvis_rotation	pelvis_tx	pelvis_ty	pelvis_tz	hip_flexion_r	hip_adduction_r	hip_rotation_r	knee_angle_r	ankle_angle_r	subtalar_angle_r	mtp_angle_r	hip_flexion_l	hip_adduction_l	hip_rotation_l	knee_angle_l	ankle_angle_l	subtalar_angle_l	mtp_angle_l	lumbar_extension	lumbar_bending	lumbar_rotation	arm_flex_r	arm_add_r	arm_rot_r	elbow_flex_r	pro_sup_r	arm_flex_l	arm_add_l	arm_rot_l	elbow_flex_l	pro_sup_l
      1.40000000	      1.88662840	     -1.48866252	     -0.62785647	      0.14078919	      0.89491162	      0.21931122	    -21.68038685	      5.09901033	     -0.66757184	    -13.49954819	      7.86219455	      8.15233883	     13.85052560	     26.19418171	      0.83238903	     -5.34387055	    -12.47413158	      3.03894426	      4.53428461	     11.95284850	     -7.93597867	      2.80334928	      4.89882546	      2.14455467	    -22.80596455	      7.69316806	     42.71700138	     90.00000000	     -8.89341972	    -12.79255678	     23.60044662	      6.08619062	     90.00000000
      1.41000000	      1.86545403	     -0.85175859	     -0.64959797	      0.15751550	      0.89373745	      0.21828532	    -21.60644964	      4.16880449	     -1.48995816	    -15.41173304	      7.04402424	      9.59635083	     15.08013907	     25.75109793	      1.79801303	     -4.54125533	    -13.29050705	     -0.11195510	      3.26437888	     10.92124779	     -7.56361914	      2.06480317	      4.82861438	      1.50291420	    -22.51699821	      7.01774437	     42.69636835	     90.00000000	     -9.14031379	    -12.89369952	     23.46273392	      5.87422374	     90.00000000
      1.42000000	      1.73598287	     -0.19772363	     -0.68064122	      0.17395787	      0.89284278	      0.21765198	    -21.37073878	      3.31494334	     -1.75870729	    -17.27332965	      5.67947737	      9.82319363	     16.09870040	     25.45952911	      2.63632968	     -4.26073084	    -13.64556404	     -3.90674630	      1.65895245	      9.84176001	     -7.10139699	      1.23718782	      4.70176231	      0.98449798	    -22.14057076	      6.67459912	     42.41079038	     90.00000000	     -9.37860293	    -13.06206480	     23.40624736	      5.86580032	     90.00000000
      1.43000000	      1.64823899	      0.35518043	     -0.55147437	      0.19032361	      0.89229726	      0.21686831	    -21.12256559	      2.67161522	     -1.90338363	    -19.00379861	      2.54420495	      9.39597850	     23.11082624	     25.38347427	      3.39555495	     -3.53517360	    -14.79953194	     -4.83598859	     -0.25965788	     11.71146416	     -6.69707869	      0.55933096	      4.44494239	      0.44055218	    -21.75967226	      6.32132926	     42.07124179	     90.00000000	     -9.51665733	    -13.23105124	     24.29092826	      5.78588750	     90.00000000
      1.44000000	      1.29158793	      0.84431093	     -0.31287372	      0.20616161	      0.89163388	      0.21602088	    -20.26339752	      2.14094784	     -2.08047317	    -21.25119429	     -0.16334876	      8.81740771	     26.67712191	     25.96947688	      4.10632735	     -2.42317292	    -16.98154369	     -5.74621449	     -2.76600247	     11.78588536	     -6.06475652	     -0.06463174	      3.95866853	      0.08946392	    -21.32430372	      6.11636077	     41.42596482	     90.00000000	     -9.65901453	    -13.35897580	     24.22771639	      5.81606837	     90.00000000
      1.45000000	      0.86920755	      1.42825724	      0.00526751	      0.22175599	      0.89127234	      0.21493414	    -18.97677962	      1.45623950	     -2.54310620	    -24.02807530	     -2.94045442	      8.67489034	     28.84647038	     26.52401089	      4.97031910	     -1.38134808	    -19.01895629	     -6.24820524	     -5.50694179	     11.60911538	     -5.38455755	     -0.77843191	      3.43175174	     -0.29148799	    -20.90302937	      6.06798133	     40.65398888	     90.00000000	     -9.67099338	    -13.48047017	     24.39208624	      5.80559342	     90.00000000
      1.46000000	      0.74380207	      2.11418078	      0.30412250	      0.23748655	      0.89153145	      0.21406741	    -17.87346585	      0.63139086	     -3.18264434	    -26.79194165	     -7.57339922	      7.58827215	     36.09447623	     26.53616144	      5.86629140	     -0.73809152	    -20.48983407	     -6.93431031	     -6.66245789	     11.74967200	     -5.04281403	     -1.61043915	      2.96259437	     -0.75487272	    -20.34402164	      5.66586418	     39.89729445	     90.00000000	     -9.53201814	    -13.65217598	     24.95509608	      5.71553767	     90.00000000
      1.47000000	      0.69345083	      2.85780062	      0.42410097	      0.25305133	      0.89203705	      0.21328438	    -16.58015629	     -0.40015585	     -3.65747776	    -29.94724636	    -11.08396851	      7.51410976	     36.05981029	     26.34786029	      6.81219528	     -0.30762426	    -21.74493184	     -6.60898808	     -6.90044587	     11.74157917	     -4.84138375	     -2.47897419	      2.65342995	     -1.27220963	    -19.90675021	      5.39679318	     39.39464582	     90.00000000	     -9.41661492	    -13.84533737	     24.68829649	      5.98913526	     90.00000000
